<svg id="icon" xmlns="http://www.w3.org/2000/svg" viewBox="0 0 512 512"><defs><style>.cls-1{fill:#00e6ac;}.cls-2{fill:#fff;}</style></defs><rect class="cls-1" width="512" height="512"/><path class="cls-2" d="M240.81,135.92c0-5.7-.08-11.07,0-16.45C241,110.58,247.59,104,256.1,104s15,6.71,15.14,15.63c.1,5.37,0,10.74,0,15.56,6.75,3,13.44,5.21,19.32,8.75,21.23,12.77,32.53,31.81,33.88,56.52.55,10.06-5.66,17.21-14.59,17.52s-15.37-6.37-15.8-16.46a38.11,38.11,0,0,0-40.41-36.65C232.89,166,216.81,184.25,218,205.31c1.14,19.63,17.51,35.06,37.81,35.47,22.5.45,40.93,9.25,54.62,27.07,29.06,37.84,11,93.08-34.73,106.84L271.26,376c0,5.32.06,10.68,0,16-.12,9.23-6.66,16-15.31,15.94s-15-6.85-15.12-16.14c-.06-5.21,0-10.42,0-15.76-3.33-1.12-6.48-2.09-9.57-3.23-25.06-9.31-43-34.57-43.69-61.36-.24-10.12,5.68-17.19,14.65-17.49s15.37,6.36,15.79,16.46a38.13,38.13,0,0,0,39.94,36.67c20.64-.87,36.83-18.58,36.13-39.52-.67-20.06-17.16-36-37.86-36.4-21.93-.44-40.08-8.87-53.75-26C171.82,207,190.34,150.43,237.73,137,238.65,136.76,239.52,136.38,240.81,135.92Z"/></svg>