<svg xmlns="http://www.w3.org/2000/svg" viewBox="0 0 500 500"><g id="freepik--background-complete--inject-2"><rect y="382.4" width="500" height="0.25" style="fill:#ebebeb"></rect><rect x="416.78" y="398.49" width="33.12" height="0.25" style="fill:#ebebeb"></rect><rect x="322.53" y="401.21" width="8.69" height="0.25" style="fill:#ebebeb"></rect><rect x="396.59" y="389.21" width="19.19" height="0.25" style="fill:#ebebeb"></rect><rect x="52.46" y="390.89" width="43.19" height="0.25" style="fill:#ebebeb"></rect><rect x="104.56" y="390.89" width="6.33" height="0.25" style="fill:#ebebeb"></rect><rect x="131.47" y="395.11" width="93.68" height="0.25" style="fill:#ebebeb"></rect><path d="M237,337.8H43.91a5.71,5.71,0,0,1-5.7-5.71V60.66A5.71,5.71,0,0,1,43.91,55H237a5.71,5.71,0,0,1,5.71,5.71V332.09A5.71,5.71,0,0,1,237,337.8ZM43.91,55.2a5.46,5.46,0,0,0-5.45,5.46V332.09a5.46,5.46,0,0,0,5.45,5.46H237a5.47,5.47,0,0,0,5.46-5.46V60.66A5.47,5.47,0,0,0,237,55.2Z" style="fill:#ebebeb"></path><path d="M453.31,337.8H260.21a5.72,5.72,0,0,1-5.71-5.71V60.66A5.72,5.72,0,0,1,260.21,55h193.1A5.71,5.71,0,0,1,459,60.66V332.09A5.71,5.71,0,0,1,453.31,337.8ZM260.21,55.2a5.47,5.47,0,0,0-5.46,5.46V332.09a5.47,5.47,0,0,0,5.46,5.46h193.1a5.47,5.47,0,0,0,5.46-5.46V60.66a5.47,5.47,0,0,0-5.46-5.46Z" style="fill:#ebebeb"></path><circle cx="48.96" cy="236.67" r="22.05" style="fill:#f0f0f0"></circle><path d="M61.75,241.49a10.08,10.08,0,0,0-3-7.16l-3.48-3.49-.26-.25-3.76-3.76a10.16,10.16,0,0,0-14.32,0,11.46,11.46,0,0,0-.81.93l6.2,6.21,3.39-3.39a1.73,1.73,0,0,1,2.44,0L51.64,234l.25.25,3.16,3.16a1.73,1.73,0,0,1,0,2.44l-3.39,3.39,6.2,6.2a9.82,9.82,0,0,0,3.89-8Z" style="fill:#fafafa"></path><circle cx="155.71" cy="99.73" r="28.54" style="fill:#f0f0f0"></circle><rect x="137.57" y="89.85" width="28.03" height="19.75" rx="1.8" style="fill:#fafafa"></rect><polygon points="173.85 105.35 167.87 103.2 167.87 96.26 173.85 94.1 173.85 105.35" style="fill:#fafafa"></polygon><circle cx="441.85" cy="195.4" r="26.85" style="fill:#f0f0f0"></circle><rect x="424.78" y="186.11" width="26.36" height="18.57" rx="1.8" style="fill:#fafafa"></rect><polygon points="458.91 200.69 453.28 198.66 453.28 192.13 458.91 190.11 458.91 200.69" style="fill:#fafafa"></polygon><circle cx="350.55" cy="77.61" r="32.31" style="fill:#f0f0f0"></circle><rect x="331.81" y="70.91" width="8.13" height="13.4" style="fill:#fafafa"></rect><polygon points="352.67 91.02 338.58 83.65 338.58 71.56 352.67 64.19 352.67 91.02" style="fill:#fafafa"></polygon><rect x="358.46" y="76.81" width="10.84" height="1.59" style="fill:#fafafa"></rect><rect x="356.22" y="64.97" width="10.91" height="1.59" transform="translate(11.76 178.43) rotate(-28.15)" style="fill:#fafafa"></rect><rect x="360.88" y="83.99" width="1.59" height="10.91" transform="translate(112.15 366.11) rotate(-61.84)" style="fill:#fafafa"></rect><circle cx="416.78" cy="305.63" r="21.84" transform="translate(-43.58 70.71) rotate(-9.22)" style="fill:#f0f0f0"></circle><rect x="411.71" y="293.79" width="10.13" height="16.74" rx="4.71" style="fill:#fafafa"></rect><path d="M416.78,313.89a7.85,7.85,0,0,1-7.84-7.84v-3.11a.7.7,0,1,1,1.39,0v3.11a6.45,6.45,0,0,0,12.89,0v-3.11a.7.7,0,0,1,1.4,0v3.11A7.85,7.85,0,0,1,416.78,313.89Z" style="fill:#fafafa"></path><path d="M416.78,318.17a.7.7,0,0,1-.7-.7v-4.28a.7.7,0,1,1,1.4,0v4.28A.7.7,0,0,1,416.78,318.17Z" style="fill:#fafafa"></path><path d="M428.89,318.44a.67.67,0,0,1-.49-.21L404.18,294a.69.69,0,0,1,1-1l24.22,24.22a.69.69,0,0,1,0,1A.67.67,0,0,1,428.89,318.44Z" style="fill:#fafafa"></path><circle cx="188.28" cy="250" r="23.14" transform="translate(-52.4 49.94) rotate(-13.28)" style="fill:#f0f0f0"></circle><rect x="182.91" y="237.45" width="10.73" height="17.74" rx="4.71" style="fill:#fafafa"></rect><path d="M188.28,258.58a8.15,8.15,0,0,1-8.14-8.14v-3.3a.57.57,0,0,1,.57-.57.58.58,0,0,1,.57.57v3.3a7,7,0,1,0,14,0v-3.3a.58.58,0,0,1,.57-.57.57.57,0,0,1,.57.57v3.3A8.15,8.15,0,0,1,188.28,258.58Z" style="fill:#fafafa"></path><path d="M188.28,263.12a.57.57,0,0,1-.57-.57V258a.57.57,0,0,1,.57-.57.58.58,0,0,1,.57.57v4.54A.58.58,0,0,1,188.28,263.12Z" style="fill:#fafafa"></path><path d="M201.11,263.4a.55.55,0,0,1-.4-.16L175,237.57a.57.57,0,0,1,.81-.81l25.66,25.67a.58.58,0,0,1,0,.81A.57.57,0,0,1,201.11,263.4Z" style="fill:#fafafa"></path></g><g id="freepik--Shadow--inject-2"><ellipse id="freepik--path--inject-2" cx="247.96" cy="434.88" rx="193.89" ry="32.24" style="fill:#f5f5f5"></ellipse></g><g id="freepik--Icon--inject-2"><path d="M251.7,93a65.13,65.13,0,1,0,65.13,65.12A65.13,65.13,0,0,0,251.7,93Zm35.38,94.2a30,30,0,0,1-42.29,0l-11.11-11.12-.75-.75L222.63,165a30,30,0,0,1,0-42.29,36,36,0,0,1,2.77-2.4l18.33,18.33-10,10a5.09,5.09,0,0,0,0,7.22l9.32,9.32.74.75,10.15,10.14a5.1,5.1,0,0,0,7.21,0l10-10,18.33,18.33A34.09,34.09,0,0,1,287.08,187.17Z" style="fill:#1D4ED8"></path><path d="M251.7,93a65.13,65.13,0,1,0,65.13,65.12A65.13,65.13,0,0,0,251.7,93Zm35.38,94.2a30,30,0,0,1-42.29,0l-11.11-11.12-.75-.75L222.63,165a30,30,0,0,1,0-42.29,36,36,0,0,1,2.77-2.4l18.33,18.33-10,10a5.09,5.09,0,0,0,0,7.22l9.32,9.32.74.75,10.15,10.14a5.1,5.1,0,0,0,7.21,0l10-10,18.33,18.33A34.09,34.09,0,0,1,287.08,187.17Z" style="fill:#fff;opacity:0.4"></path></g><g id="freepik--speech-bubble-4--inject-2"><path d="M375.32,128.18h35.95a12.36,12.36,0,0,1,12.35,12.36v14.92a12.36,12.36,0,0,1-12.35,12.36H386.54l-8.15,7.71-.17-7.71h-2.9A12.36,12.36,0,0,1,363,155.46V140.54A12.36,12.36,0,0,1,375.32,128.18Z" style="fill:#1D4ED8"></path><g style="opacity:0.4"><path d="M375.32,128.18h35.95a12.36,12.36,0,0,1,12.35,12.36v14.92a12.36,12.36,0,0,1-12.35,12.36H386.54l-8.15,7.71-.17-7.71h-2.9A12.36,12.36,0,0,1,363,155.46V140.54A12.36,12.36,0,0,1,375.32,128.18Z" style="fill:#fff"></path></g><path d="M407.3,147.15a2.5,2.5,0,1,0,2.5-2.5A2.49,2.49,0,0,0,407.3,147.15Z" style="fill:#fff"></path><circle cx="398.79" cy="147.15" r="2.5" style="fill:#fff"></circle><path d="M385.29,147.15a2.5,2.5,0,1,0,2.5-2.5A2.49,2.49,0,0,0,385.29,147.15Z" style="fill:#fff"></path><circle cx="376.79" cy="147.15" r="2.5" style="fill:#fff"></circle></g><g id="freepik--speech-bubble-3--inject-2"><path d="M257.43,215.92H225.92a10.83,10.83,0,0,0-10.83,10.83v13.08a10.83,10.83,0,0,0,10.83,10.83h21.67l7.14,6.76.15-6.76h2.55a10.83,10.83,0,0,0,10.83-10.83V226.75A10.83,10.83,0,0,0,257.43,215.92Z" style="fill:#263238"></path><g style="opacity:0.4"><path d="M257.43,215.92H225.92a10.83,10.83,0,0,0-10.83,10.83v13.08a10.83,10.83,0,0,0,10.83,10.83h21.67l7.14,6.76.15-6.76h2.55a10.83,10.83,0,0,0,10.83-10.83V226.75A10.83,10.83,0,0,0,257.43,215.92Z" style="fill:#fff"></path></g><path d="M229.4,232.54a2.19,2.19,0,1,1-2.19-2.19A2.19,2.19,0,0,1,229.4,232.54Z" style="fill:#fff"></path><circle cx="236.85" cy="232.54" r="2.19" style="fill:#fff"></circle><path d="M248.68,232.54a2.19,2.19,0,1,1-2.19-2.19A2.19,2.19,0,0,1,248.68,232.54Z" style="fill:#fff"></path><circle cx="256.14" cy="232.54" r="2.19" style="fill:#fff"></circle></g><g id="freepik--speech-bubble-2--inject-2"><path d="M200.84,284.35H170.67a10.37,10.37,0,0,0-10.37,10.38v12.51a10.37,10.37,0,0,0,10.37,10.38h20.75l6.84,6.47.14-6.47h2.44a10.37,10.37,0,0,0,10.37-10.38V294.73A10.37,10.37,0,0,0,200.84,284.35Z" style="fill:#1D4ED8"></path><path d="M174,300.27a2.1,2.1,0,1,1-2.09-2.1A2.09,2.09,0,0,1,174,300.27Z" style="fill:#fff"></path><circle cx="181.14" cy="300.27" r="2.1" style="fill:#fff"></circle><path d="M192.47,300.27a2.1,2.1,0,1,1-2.1-2.1A2.09,2.09,0,0,1,192.47,300.27Z" style="fill:#fff"></path><circle cx="199.6" cy="300.27" r="2.1" style="fill:#fff"></circle></g><g id="freepik--speech-bubble-1--inject-2"><path d="M108,112.59H77.52A10.48,10.48,0,0,0,67,123.08v12.66a10.48,10.48,0,0,0,10.49,10.49h21l6.91,6.55.15-6.55H108a10.49,10.49,0,0,0,10.5-10.49V123.08A10.49,10.49,0,0,0,108,112.59Z" style="fill:#263238"></path><path d="M80.89,128.69a2.12,2.12,0,1,1-2.12-2.12A2.12,2.12,0,0,1,80.89,128.69Z" style="fill:#fff"></path><circle cx="88.11" cy="128.69" r="2.12" style="fill:#fff"></circle><path d="M99.57,128.69a2.12,2.12,0,1,1-2.12-2.12A2.12,2.12,0,0,1,99.57,128.69Z" style="fill:#fff"></path><circle cx="106.79" cy="128.69" r="2.12" style="fill:#fff"></circle></g><g id="freepik--character-4--inject-2"><path d="M405.51,283.47c-3.76-13.5-63.51,2.7-63.51,2.7s-2.88,14.93-1.82,27.19h0c-.75,16.36,2.93,31.47,3.74,47.19-3.17,21.31.82,51.52.82,51.52l14.53,1.84s8.63-34.18,12.12-52.5c.86-4.52,1.86-10.06,2.87-15.79a152.61,152.61,0,0,1,4.39,16.12c-.21,21.54,7.88,50.92,7.88,50.92l14.64-.17s3.87-35.05,4.8-53.67c.65-12.84,1-34.44,1.21-45.63C407.62,308.67,408.63,294.64,405.51,283.47Z" style="fill:#263238"></path><path d="M405.51,283.47c-3.76-13.5-63.51,2.7-63.51,2.7s-2.88,14.93-1.82,27.19h0c-.75,16.36,2.93,31.47,3.74,47.19-3.17,21.31.82,51.52.82,51.52l14.53,1.84s8.63-34.18,12.12-52.5c.86-4.52,1.86-10.06,2.87-15.79a152.61,152.61,0,0,1,4.39,16.12c-.21,21.54,7.88,50.92,7.88,50.92l14.64-.17s3.87-35.05,4.8-53.67c.65-12.84,1-34.44,1.21-45.63C407.62,308.67,408.63,294.64,405.51,283.47Z" style="fill:#fff;opacity:0.5"></path><polygon points="399.71 406.63 386.93 406.96 388.24 422.04 398.92 421.78 399.71 406.63" style="fill:#d9877c"></polygon><polygon points="399.71 406.63 386.92 406.97 387.66 415.41 399.27 415.12 399.71 406.63" style="opacity:0.2"></polygon><path d="M385.81,413.18l15.82-.14a.56.56,0,0,0,.55-.49l.71-5.81a.54.54,0,0,0-.58-.62l-17.63,1.19a.57.57,0,0,0-.5.68l1.09,4.76A.53.53,0,0,0,385.81,413.18Z" style="fill:#263238"></path><path d="M387.27,420.12a.61.61,0,0,1,.76-.5c3.2,1.28,9.29.3,11.59-.14a1.91,1.91,0,0,1,1.48.3c2.45,1.74,9,2.8,9,2.8a7.18,7.18,0,0,1,.32,3.85H385.93A43.36,43.36,0,0,0,387.27,420.12Z" style="fill:#263238"></path><polygon points="358.94 408.64 346.25 407.12 345.36 422.23 355.97 423.51 358.94 408.64" style="fill:#d9877c"></polygon><polygon points="358.94 408.64 346.24 407.12 345.74 415.58 357.28 416.97 358.94 408.64" style="opacity:0.2"></polygon><path d="M344,412.49l15.7,2a.55.55,0,0,0,.6-.4l1.51-5.67a.55.55,0,0,0-.5-.69l-17.62-1.24a.55.55,0,0,0-.59.6l.42,4.87A.54.54,0,0,0,344,412.49Z" style="fill:#263238"></path><path d="M345,420.12a.6.6,0,0,1,.75-.5c3.21,1.28,9.29.3,11.6-.14a1.89,1.89,0,0,1,1.47.3c2.46,1.74,9,2.8,9,2.8a7.25,7.25,0,0,1,.33,3.85H343.65A42.72,42.72,0,0,0,345,420.12Z" style="fill:#263238"></path><path d="M385.81,413.18l15.82-.14a.56.56,0,0,0,.55-.49l.71-5.81a.54.54,0,0,0-.58-.62l-17.63,1.19a.57.57,0,0,0-.5.68l1.09,4.76A.53.53,0,0,0,385.81,413.18Z" style="fill:#fff;opacity:0.6000000000000001"></path><path d="M344,412.49l15.7,2a.55.55,0,0,0,.6-.4l1.51-5.67a.55.55,0,0,0-.5-.69l-17.62-1.24a.55.55,0,0,0-.59.6l.42,4.87A.54.54,0,0,0,344,412.49Z" style="fill:#fff;opacity:0.6000000000000001"></path><path d="M341.12,291.71l-1.18,3.77s18.15,6.88,35.76,9.79l6-5.33,4.34,5.33s16.66-2.26,22.2-6.78l-1.35-8.6Z" style="fill:#1D4ED8"></path><path d="M341.12,291.71l-1.18,3.77s18.15,6.88,35.76,9.79l6-5.33,4.34,5.33s16.66-2.26,22.2-6.78l-1.35-8.6Z" style="fill:#fff;opacity:0.5"></path><path d="M386,219.47c8.15,1.35,17.73,2.09,25.76-.25l-3.51,2.86c-1.47,1.86-1.43,5.82.11,7.16.21.16.2,0,.08-.12a4.23,4.23,0,0,0-.61-.67c-4.69-3.94-11.28-7-16.65-10.33A4.93,4.93,0,0,1,394,209a65.38,65.38,0,0,1,7.5.94A61.29,61.29,0,0,1,412.76,213c5.18,2.2,10,4.63,11.51,11.18.79,4.24-1.32,9.37-5.36,11-11.54,5.57-25.24,6-37.53,3.12-12.11-3.69-7.84-21.14,4.58-18.88Z" style="fill:#1D4ED8"></path><path d="M404.15,239.56c-1.41.18-2.81.32-4.2.4s-3.06.13-4.59.12-3.05-.06-4.58-.2-3.06-.27-4.6-.52a46.35,46.35,0,0,1-4.8-1,9.27,9.27,0,0,1-2-.76,31.05,31.05,0,0,1,3-10.37S395.65,229,404.15,239.56Z" style="opacity:0.2"></path><path d="M392.38,212l-3.67,4c-5.08,2.54-7.21-4.56-7.21-4.56l-3.56-4.29a2.87,2.87,0,0,1,.35-3.7l2.54-2.79a3,3,0,0,1,4.14-.51l3.65,3.53a5.92,5.92,0,0,1,1.61,2.39Z" style="fill:#ebb376"></path><path d="M389,218.94l-2.75-1.49a35.77,35.77,0,0,0,5.48-8.79l3.88-.37S394.83,216.25,389,218.94Z" style="fill:#1D4ED8"></path><path d="M389,218.94l-2.75-1.49a35.77,35.77,0,0,0,5.48-8.79l3.88-.37S394.83,216.25,389,218.94Z" style="fill:#fff;opacity:0.5"></path><path d="M335.59,236.67c4,14.72,4.27,32.19,5.21,44.64,0,0-2.29,8.11.08,12.27,0,0,40.61,12.22,66.81,1.07a85.63,85.63,0,0,0,.26-16.2c-1.53-20.48-11.57-35.31-17.73-53.58-1.34-4-5.83-6-10-6.15a161.2,161.2,0,0,0-35.57,3A12,12,0,0,0,335.59,236.67Z" style="fill:#1D4ED8"></path><path d="M370.57,226.11c-6.87,1.09-13.49-4.16-16.94-5.85,3.23-2.82,1.16-7.37,1.59-9.87.19-1.11.24-1.82.24-1.82l15.55,4a7.12,7.12,0,0,0,.15,4.74,6.3,6.3,0,0,1,3.6,3,.47.47,0,0,0,.05.1C375.93,222.66,377.34,225,370.57,226.11Z" style="fill:#ebb376"></path><path d="M374.81,220.37c-6.68,3.63-17.69-4.08-19.59-10,.19-1.11.24-1.82.24-1.82l15.55,4a7.12,7.12,0,0,0,.15,4.74,6.3,6.3,0,0,1,3.6,3A.47.47,0,0,0,374.81,220.37Z" style="opacity:0.2"></path><path d="M371,226l-2.85-2-3.81,2.44S366.77,228.45,371,226Z" style="fill:#1D4ED8"></path><path d="M371,226l-2.85-2-3.81,2.44S366.77,228.45,371,226Z" style="fill:#fff;opacity:0.5"></path><path d="M355.11,218.35s5.67,6.24,13,5.65a11.51,11.51,0,0,0-5,7.59s-9.18-1.66-11-11.36A4,4,0,0,1,355.11,218.35Z" style="fill:#1D4ED8"></path><path d="M371,226l3.2-3.35,4.1.71S375.21,227.36,371,226Z" style="fill:#1D4ED8"></path><path d="M371,226l3.2-3.35,4.1.71S375.21,227.36,371,226Z" style="fill:#fff;opacity:0.5"></path><path d="M371.16,217.28s2.87,3,3,5.41c3.44.55,5.12,5.46,5.12,5.46s.59-7.41-4.82-10.66A5.49,5.49,0,0,0,371.16,217.28Z" style="fill:#1D4ED8"></path><path d="M355.11,218.35s5.67,6.24,13,5.65a11.51,11.51,0,0,0-5,7.59s-9.18-1.66-11-11.36A4,4,0,0,1,355.11,218.35Z" style="fill:#fff;opacity:0.8"></path><path d="M371.16,217.28s2.87,3,3,5.41c3.44.55,5.12,5.46,5.12,5.46s.59-7.41-4.82-10.66A5.49,5.49,0,0,0,371.16,217.28Z" style="fill:#fff;opacity:0.8"></path><path d="M335.59,236.67c4,14.72,4.27,32.19,5.21,44.64,0,0,3.24,1,12,.66,11-.48,20.69-10.43,14.59-12.69-8.83-3.26-21.91-7-21.91-7,2.4-7.53,1.95-19,1.95-19Z" style="opacity:0.2"></path><path d="M351.27,240c.42-.34.3-.25.24-.16l-.39.5c-4.87,6.68-9.63,14.23-12.26,22a20.54,20.54,0,0,0-.53,2.25c0,.19-.05.24-.14.07a5.14,5.14,0,0,0-.56-.88c-.26-.39-1-.9-.91-.71,1.83,1.47,4.94,2,7.41,2.62,5.36,1.19,11.38,1.93,17.19,2.84a4.9,4.9,0,0,1,.7,9.6,80.69,80.69,0,0,1-14.34,2.38c-16.17,1.4-30.51-3-26.78-22.34a62.75,62.75,0,0,1,5.5-15.11,75.73,75.73,0,0,1,10.73-16.38c4-4.85,11.38-5.46,15.54-.35a9.7,9.7,0,0,1-1.4,13.66Z" style="fill:#1D4ED8"></path><path d="M361.59,269l-1.67,4.85c.16,5.39,7.05,4,7.05,4l3.59.66a2.72,2.72,0,0,0,2.94-1.94l1.19-3.39a2.83,2.83,0,0,0-1.43-3.68l-3-1.08a5.6,5.6,0,0,0-2.72-.28Z" style="fill:#ebb376"></path><path d="M360.84,267.35l3.32,1.34a23.27,23.27,0,0,0-3.3,9l-4.29,2.86S355.45,270.89,360.84,267.35Z" style="fill:#1D4ED8"></path><path d="M360.84,267.35l3.32,1.34a23.27,23.27,0,0,0-3.3,9l-4.29,2.86S355.45,270.89,360.84,267.35Z" style="fill:#fff;opacity:0.5"></path><path d="M372.82,200.12l5.44-5.88-.27-.3a4.22,4.22,0,0,1,.76,0,.63.63,0,0,1,.52.35l9.91,16.3a1,1,0,0,1,0,1.18l-5.57,6a.42.42,0,0,1-.32.15h-.79l.14-.5-9.82-16.15A1,1,0,0,1,372.82,200.12Z" style="fill:#1D4ED8"></path><path d="M382.86,217.79l5.58-6a1,1,0,0,0,0-1.18l-9.92-16.3c-.23-.38-.62-.47-.87-.2l-5.58,6a1,1,0,0,0,0,1.18L382,217.6C382.21,218,382.61,218.06,382.86,217.79Z" style="fill:#1D4ED8"></path><path d="M382.86,217.79l5.58-6a1,1,0,0,0,0-1.18l-9.92-16.3c-.23-.38-.62-.47-.87-.2l-5.58,6a1,1,0,0,0,0,1.18L382,217.6C382.21,218,382.61,218.06,382.86,217.79Z" style="fill:#fff;opacity:0.6000000000000001"></path><path d="M382.53,217.16l5.51-5.95a.49.49,0,0,0,0-.58l-9.61-15.81c-.12-.19-.31-.23-.43-.1l-5.52,6a.51.51,0,0,0,0,.57l9.62,15.82C382.22,217.25,382.41,217.3,382.53,217.16Z" style="fill:#263238"></path><g style="opacity:0.4"><path d="M374.25,202.1a.32.32,0,0,0,.2-.08l4.25-4.6a.27.27,0,0,0,0-.38.28.28,0,0,0-.39,0l-4.25,4.6a.27.27,0,0,0,0,.38A.28.28,0,0,0,374.25,202.1Z" style="fill:#fff"></path></g><path d="M378.41,207a2.28,2.28,0,0,0,1.55,1.16,1.51,1.51,0,0,0,1.35-.51A2.75,2.75,0,0,0,382,206a3.85,3.85,0,0,0-.53-2.25c-.76-1.26-2.06-1.55-2.89-.65A3.46,3.46,0,0,0,378.41,207Z" style="fill:#fff;opacity:0.4"></path><path d="M379.9,208.05l.06.1a1.51,1.51,0,0,0,1.35-.51A2.75,2.75,0,0,0,382,206l-.06-.1a1.27,1.27,0,0,0-1.55-.69,1.38,1.38,0,0,0-.18-.92c-.28-.45-.75-.56-1.05-.23a1.24,1.24,0,0,0,0,1.41.79.79,0,0,0,.63.43A2.45,2.45,0,0,0,379.9,208.05Z" style="fill:#fff"></path><path d="M382.5,216.8l5.28-5.71a.34.34,0,0,0,0-.39l-1.42-2.33a.18.18,0,0,0-.29-.06L380.81,214a.34.34,0,0,0,0,.39l1.42,2.33A.18.18,0,0,0,382.5,216.8Z" style="fill:#fff;opacity:0.2"></path><g style="opacity:0.4"><path d="M376.58,201.21a.14.14,0,0,0,.1-.05l.88-.95a.13.13,0,0,0-.2-.18l-.88.95a.13.13,0,0,0,0,.19A.15.15,0,0,0,376.58,201.21Z" style="fill:#fff"></path></g><path d="M382.05,215.05c.19.32.52.39.73.17a.87.87,0,0,0,0-1c-.19-.32-.52-.39-.73-.16A.87.87,0,0,0,382.05,215.05Z" style="fill:#fff;opacity:0.4"></path><path d="M383.32,213.69c.19.32.51.39.72.16a.85.85,0,0,0,0-1c-.19-.32-.51-.39-.72-.17A.85.85,0,0,0,383.32,213.69Z" style="fill:#fff;opacity:0.4"></path><path d="M384.58,212.33c.19.31.51.39.72.16a.87.87,0,0,0,0-1c-.19-.31-.51-.38-.72-.16A.87.87,0,0,0,384.58,212.33Z" style="fill:#fff;opacity:0.4"></path><path d="M385.84,211c.19.31.51.38.72.16a.87.87,0,0,0,0-1c-.19-.31-.51-.39-.72-.16A.87.87,0,0,0,385.84,211Z" style="fill:#1D4ED8"></path><path d="M366.06,187.66s3.95.12,5.68,2.3,5.11,10.78,2.76,12.22-10.05.23-11-2.81S366.06,187.66,366.06,187.66Z" style="fill:#263238"></path><path d="M351.14,202.51c2.66,7.7,4.64,12.87,10.45,15,11.55,4.31,16.25-1.31,16.13-9.6-.1-7.47-4.42-18.81-13.56-19.93S348.48,194.81,351.14,202.51Z" style="fill:#ebb376"></path><path d="M363.83,200.77a4,4,0,0,0-3,.6A8,8,0,0,0,363.83,200.77Z" style="fill:#d58745"></path><path d="M363.93,201.5a3.33,3.33,0,0,0-2.51,1.21A6.53,6.53,0,0,0,363.93,201.5Z" style="fill:#d58745"></path><path d="M370.17,192.06a37.38,37.38,0,0,0-7.6,1.24C366.83,192.76,370.17,192.06,370.17,192.06Z" style="fill:#d58745"></path><path d="M371.39,192.69s-5.81,1-8.43,2.43A69.74,69.74,0,0,0,371.39,192.69Z" style="fill:#d58745"></path><path d="M366.35,200.53c.17.69.68,1.15,1.13,1s.67-.77.5-1.46-.68-1.15-1.13-1S366.18,199.84,366.35,200.53Z" style="fill:#263238"></path><path d="M373.53,198.91c.17.69.67,1.16,1.12,1s.68-.77.51-1.46-.68-1.16-1.13-1S373.35,198.22,373.53,198.91Z" style="fill:#263238"></path><path d="M362.18,199.48a.39.39,0,0,1-.21,0,.42.42,0,0,1-.22-.55,4.25,4.25,0,0,1,2.88-2.53.41.41,0,0,1,.48.34.43.43,0,0,1-.33.49h0a3.32,3.32,0,0,0-2.26,2A.42.42,0,0,1,362.18,199.48Z" style="fill:#263238"></path><path d="M375.8,196.34a.42.42,0,0,1-.38-.1,3.29,3.29,0,0,0-2.86-.92.4.4,0,0,1-.5-.3.42.42,0,0,1,.3-.51,4.12,4.12,0,0,1,3.64,1.12.42.42,0,0,1,0,.59A.45.45,0,0,1,375.8,196.34Z" style="fill:#263238"></path><path d="M376.22,207.83s-3.05-.06-11.21,1.68c1.48,2.25,3.68,3.87,7.86,2.94A3.88,3.88,0,0,0,376.22,207.83Z" style="fill:#263238"></path><path d="M370.52,210.94a7.75,7.75,0,0,1,4.8.22,4.57,4.57,0,0,1-2.45,1.29,7.69,7.69,0,0,1-4.8-.22A4.51,4.51,0,0,1,370.52,210.94Z" style="fill:#a02724"></path><path d="M375.83,207.83a1.72,1.72,0,0,1-1,1.49,43.47,43.47,0,0,1-7.35.92,2.34,2.34,0,0,1-2.1-.81A69.62,69.62,0,0,1,375.83,207.83Z" style="fill:#fff"></path><path d="M363,184.88c-2.76-.62-13.64,3.35-15.87,9a15.2,15.2,0,0,0,3,16,53.55,53.55,0,0,0,7.49.5c3.67-.06,2.08-10.18-.49-12.34l-.55-.25c-1.42-.69-3.77-2.11-3.87-3s3.22-5,5.63-5.24,5.38.37,6.88.1a9.8,9.8,0,0,0,2.37-.68S365.74,185.5,363,184.88Z" style="fill:#263238"></path><path d="M350.1,211.78a8.21,8.21,0,0,0,5.91,2.27c2.91-.11,3.51-2.93,2-5.23-1.38-2.06-4.55-4.49-7.13-3.27S348.17,209.91,350.1,211.78Z" style="fill:#ebb376"></path><path d="M359.74,205.64s.83,3.72,1.62,4.51,2.61-2.54,3.47-3.48,7.12-.2,7.12-.2a3.74,3.74,0,0,1,.05.79,51.52,51.52,0,0,1-6.7,1.22c-.73-.09-2.57,3.41.35,5.64s5.35,2.09,6.3,1.58.18-2.1.18-2.1l1.8-.4s.14,1.59,1.07,1.92,2.19-3.74,2.28-6-1.13-2.84-3.88-1.91l-.3-1.16s3.48-1.75,3.89-1.52c1.05.57,2,4.32,1.76,6.68s-1.31,7.11-6.27,7.94-9.4-.09-12.36-2.3-1.4-7.06-1.4-7.06Z" style="fill:#263238"></path><path d="M371.29,200.06l1.41,5.81a6.67,6.67,0,0,0,2.06-.42.78.78,0,0,0,.1-1.38A13.9,13.9,0,0,1,371.29,200.06Z" style="fill:#d58745"></path><path d="M374.26,345.62l3.85-24.16s3.26,29,.05,37.94C377.24,355.66,374.26,345.62,374.26,345.62Z" style="opacity:0.2"></path></g><g id="freepik--character-1--inject-2"><path d="M95.66,395.19c-.55,5-1,19.5-2.13,23,2,3.84,4.89,4.68,6.74,2.44S105.7,399,105.7,399Z" style="fill:#ebb376"></path><path d="M80,422.51s12.13-3.57,13-8.35a.83.83,0,0,1,1-.7l8.81,1.48a1.17,1.17,0,0,1,.9.78l.68,8.57-5.49.08-.69-.58-4.28.64c-13.52.43-11.36.46-14.07-.3C79.41,423,80,422.51,80,422.51Z" style="fill:#263238"></path><path d="M91.4,336.54c1.68,24.95,2,66.87,2,66.87l11.86.52a311.57,311.57,0,0,0,6.9-52.74q.12-3.79.11-7.59a388.74,388.74,0,0,1,9.64-44c2.94-10.74,5.53-19.28,6.93-27.45l-35-11.37C91.86,266.91,88.49,293.23,91.4,336.54Z" style="fill:#263238"></path><path d="M91.4,336.54c1.68,24.95,2,66.87,2,66.87l11.86.52a311.57,311.57,0,0,0,6.9-52.74q.12-3.79.11-7.59a388.74,388.74,0,0,1,9.64-44c2.94-10.74,5.53-19.28,6.93-27.45l-35-11.37C91.86,266.91,88.49,293.23,91.4,336.54Z" style="fill:#fff;opacity:0.2"></path><path d="M104.2,410.22c-2.25.17-9.8-1.25-11.25-2.14s-.53-6.75-.53-6.75,12.66-.12,13.62,1S104.2,410.22,104.2,410.22Z" style="fill:#263238"></path><path d="M104.2,410.22c-2.25.17-9.8-1.25-11.25-2.14s-.53-6.75-.53-6.75,12.66-.12,13.62,1S104.2,410.22,104.2,410.22Z" style="fill:#fff;opacity:0.30000000000000004"></path><path d="M112.13,351.19q.12-3.79.11-7.59a388.74,388.74,0,0,1,9.64-44c-3.77-10.74-11.69-19.57-16.87-20.51C105,279.11,98.93,326.55,112.13,351.19Z" style="opacity:0.1"></path><path d="M93.18,264.18a40.78,40.78,0,0,1,.17-8.31c0-.87,40.91-1.75,44.2-1.55a142.25,142.25,0,0,1,.44,24C109.25,279.62,94,269.24,93.18,264.18Z" style="fill:#263238"></path><path d="M93.18,264.18a40.78,40.78,0,0,1,.17-8.31c0-.87,40.91-1.75,44.2-1.55a142.25,142.25,0,0,1,.44,24C109.25,279.62,94,269.24,93.18,264.18Z" style="fill:#fff;opacity:0.2"></path><path d="M119.92,262.77c-6.2,0-12.79-.19-17.79-.37a17.84,17.84,0,0,1-.07-3.84c7,.18,13,.27,17.92.32C120,260,120,261.77,119.92,262.77Z"></path><path d="M100.06,262.32c-2.63-.11-4.61-.23-5.54-.35a.56.56,0,0,1-.49-.52c0-.62-.13-1.74-.13-2.53a.58.58,0,0,1,.59-.58l5.69.17A22.29,22.29,0,0,0,100.06,262.32Z"></path><path d="M136.84,262a.56.56,0,0,1-.47.4c-2.74.3-8.08.41-14.07.4a23.86,23.86,0,0,0-.15-3.88c8,.06,12.82,0,14.31,0a.57.57,0,0,1,.57.51A7.12,7.12,0,0,1,136.84,262Z"></path><path d="M132.58,396.87c.45,5,2.84,19.32,2.47,23,2.76,3.36,5.71,3.62,7.08,1.06s1-22.34,1-22.34Z" style="fill:#ebb376"></path><path d="M138.65,343c-1.52-36.45-.09-59.3-.58-76.42l-33.85-1.12c-.7,6.38,1.2,32.84,12.6,74.73,6.57,24.12,15.14,65.17,15.14,65.17l11.73-1.84S144.62,371.93,138.65,343Z" style="fill:#263238"></path><path d="M138.65,343c-1.52-36.45-.09-59.3-.58-76.42l-33.85-1.12c-.7,6.38,1.2,32.84,12.6,74.73,6.57,24.12,15.14,65.17,15.14,65.17l11.73-1.84S144.62,371.93,138.65,343Z" style="fill:#fff;opacity:0.2"></path><path d="M143.92,409.92c-2.17.61-9.85.71-11.45.12s-1.85-6.51-1.85-6.51,12.39-2.62,13.54-1.74S143.92,409.92,143.92,409.92Z" style="fill:#263238"></path><path d="M143.92,409.92c-2.17.61-9.85.71-11.45.12s-1.85-6.51-1.85-6.51,12.39-2.62,13.54-1.74S143.92,409.92,143.92,409.92Z" style="fill:#fff;opacity:0.30000000000000004"></path><path d="M120.23,422.51s12.13-3.57,13-8.35a.83.83,0,0,1,1-.7l8.8,1.48a1.14,1.14,0,0,1,.9.78l.69,8.57-5.49.08-.69-.58-4.28.64c-13.52.43-11.37.46-14.07-.3C119.67,423,120.23,422.51,120.23,422.51Z" style="fill:#263238"></path><path d="M102.44,203.48c-4.77-1-11.12-2.15-15.8-3.36-5.31-1.45-11-2.58-15.76-6A7.45,7.45,0,0,1,69.58,183a14.63,14.63,0,0,1,5.13-3.28A77.43,77.43,0,0,1,87.16,176c3.91-.89,8.21-1.67,12.16-2.38l2-.35a4.94,4.94,0,0,1,2.1-.13l1.74,7.06c-.41.5-1.27.63-1.83.87l-1.89.67c-3.65,1.32-7.66,2.84-11.21,4.28-4,1.7-8.31,3.15-11.72,5.49a1.19,1.19,0,0,0,.22-.17,4.41,4.41,0,0,0,1.09-1.88,5.57,5.57,0,0,0-.41-4.16,4.16,4.16,0,0,0-.94-1.2c-.09-.09,0-.05.09,0,5.41,2,13,3.06,18.79,4.23,2.48.48,5.64,1,8.16,1.64l-3.1,13.5Z" style="fill:#e9bfbb"></path><path d="M109.43,188.93l-6.54,10.63-4.66,7.57-4-1.55-5.81-2.26,4-17.17S104.57,188,109.43,188.93Z" style="fill:#1D4ED8"></path><path d="M103.29,197.65c-.12.66-.26,1.29-.4,1.91l-4.66,7.57-4-1.55A20,20,0,0,1,103.29,197.65Z" style="opacity:0.2"></path><path d="M100.94,175.54l5-7,6.38,8.07s-5.26,5.79-8.79,3.48Z" style="fill:#eec1bb"></path><path d="M114.67,167l1.76,3.21a3,3,0,0,1-.77,3.77l-3.38,2.65-6.38-8.07,4.68-2.7A3,3,0,0,1,114.67,167Z" style="fill:#eec1bb"></path><path d="M148.73,209.19c-1.33,3.88-2.27,7.26-3,10.37-.51,2-.93,3.95-1.34,5.82-.45,2.09-.89,4.11-1.38,6.15s-1.06,4.1-1.77,6.27c0,.07-.05.15-.08.23-2.21,9.53-.53,9.21-2,17,0,0,1,4.56-2.26,4.71-7.5.36-29.52,4-43.46-2.19-1.67-.73-2.47-4.88.1-7.2,1-12.55.64-32.68,3.37-43a18.37,18.37,0,0,1,1.32-3.66c5.3-10.53,10.54-14.9,10.54-14.9a24.72,24.72,0,0,0,3.46.42,143.92,143.92,0,0,1,29.28,5.65,11.27,11.27,0,0,1,7.19,6.91A11.13,11.13,0,0,1,148.73,209.19Z" style="fill:#1D4ED8"></path><path d="M134.53,175.49a40,40,0,0,0,.14,17.34,1.07,1.07,0,0,1-.48,1.14c-3.53,2.16-7.21,4.49-13.49,3.41s-6.84-3.91-5-5.81a2.6,2.6,0,0,1,1-.6c4.7-1.73,5.48-5.06,4.68-7.31Z" style="fill:#eec1bb"></path><path d="M134.53,175.5l-13.17,8.16a4.83,4.83,0,0,1-.56,4.34,9.59,9.59,0,0,0,6.91-1.11c3.36-1.93,4.89-4.66,6.38-8.63C134.2,177.38,134.35,176.47,134.53,175.5Z" style="opacity:0.2"></path><path d="M125,168.06l-3-7.44.36-.18a3.82,3.82,0,0,0-.71-.28.63.63,0,0,0-.61.14L106,171.93a1,1,0,0,0-.39,1.12l3,7.62a.44.44,0,0,0,.24.26h0l.7.27.06-.52,15-11.52A1,1,0,0,0,125,168.06Z" style="fill:#1D4ED8"></path><path d="M109.27,180.93l-3-7.63a1,1,0,0,1,.39-1.12l15.12-11.63c.35-.27.75-.21.88.14l3,7.63a1,1,0,0,1-.39,1.11l-15.11,11.63C109.8,181.33,109.41,181.27,109.27,180.93Z" style="fill:#1D4ED8"></path><path d="M109.27,180.93l-3-7.63a1,1,0,0,1,.39-1.12l15.12-11.63c.35-.27.75-.21.88.14l3,7.63a1,1,0,0,1-.39,1.11l-15.11,11.63C109.8,181.33,109.41,181.27,109.27,180.93Z" style="fill:#fff;opacity:0.6000000000000001"></path><path d="M109.8,180.46l-3-7.54a.53.53,0,0,1,.2-.55l14.67-11.28c.17-.13.36-.1.43.07l3,7.54a.52.52,0,0,1-.19.54l-14.67,11.29C110.06,180.66,109.87,180.63,109.8,180.46Z" style="fill:#263238"></path><g style="opacity:0.4"><path d="M123,169.4a.31.31,0,0,1-.15-.15l-2.31-5.82a.27.27,0,1,1,.5-.2l2.31,5.82a.27.27,0,0,1-.15.35A.34.34,0,0,1,123,169.4Z" style="fill:#fff"></path></g><path d="M117.31,172.46a2.28,2.28,0,0,1-1.86.52,1.5,1.5,0,0,1-1.08-1,2.81,2.81,0,0,1,0-1.77,3.89,3.89,0,0,1,1.31-1.92c1.16-.89,2.47-.7,2.93.44A3.48,3.48,0,0,1,117.31,172.46Z" style="fill:#fff;opacity:0.4"></path><path d="M115.54,172.91l-.09.07a1.5,1.5,0,0,1-1.08-1,2.81,2.81,0,0,1,0-1.77l.09-.08a1.29,1.29,0,0,1,1.7-.08,1.38,1.38,0,0,1,.5-.79c.42-.33.89-.25,1.06.16a1.25,1.25,0,0,1-.47,1.33.79.79,0,0,1-.75.17A2.44,2.44,0,0,1,115.54,172.91Z" style="fill:#fff"></path><path d="M110,180.14l-2.87-7.24a.34.34,0,0,1,.13-.37l2.16-1.65a.18.18,0,0,1,.29,0l2.87,7.23a.33.33,0,0,1-.13.37l-2.15,1.66C110.14,180.27,110,180.25,110,180.14Z" style="fill:#fff;opacity:0.2"></path><g style="opacity:0.4"><path d="M121.1,167.72a.12.12,0,0,1-.07-.07l-.48-1.21a.14.14,0,0,1,.07-.18.15.15,0,0,1,.18.08l.48,1.21a.13.13,0,0,1-.08.17Z" style="fill:#fff"></path></g><path d="M111,178.67c-.3.22-.62.17-.74-.11a.87.87,0,0,1,.33-.93c.29-.22.62-.17.73.11A.88.88,0,0,1,111,178.67Z" style="fill:#1D4ED8"></path><path d="M110.32,176.94c-.29.22-.62.17-.73-.11a.85.85,0,0,1,.32-.92c.29-.23.62-.18.73.11A.85.85,0,0,1,110.32,176.94Z" style="fill:#fff;opacity:0.4"></path><path d="M109.63,175.21c-.29.23-.61.18-.73-.11a.87.87,0,0,1,.32-.92c.3-.22.62-.17.74.11A.85.85,0,0,1,109.63,175.21Z" style="fill:#fff;opacity:0.4"></path><path d="M109,173.49c-.29.22-.62.17-.73-.11a.85.85,0,0,1,.32-.92c.29-.23.62-.18.73.11A.87.87,0,0,1,109,173.49Z" style="fill:#fff;opacity:0.4"></path><path d="M144.36,225.38a120.3,120.3,0,0,1-3.15,12.42c0,.07-.05.15-.08.23-2.21,9.53-.53,9.21-2,17,0,0,1,4.56-2.26,4.71-7.5.36-29.52,4-43.46-2.19-1.67-.73-2.47-4.88.1-7.2,1-12.55.64-32.68,3.37-43a36.51,36.51,0,0,1,15.68-13.45s.35,2.45,4.79,4.13a18.92,18.92,0,0,0,13.11,0s5.45,4.25,8.76,16.42C140.91,220.65,142.85,223.78,144.36,225.38Z" style="fill:#fff;opacity:0.7000000000000001"></path><path d="M145.7,219.56c-.51,2-.93,3.95-1.34,5.82-.45,2.09-.89,4.11-1.38,6.15-2.68-6-.93-14.81-.93-14.81A9.19,9.19,0,0,1,145.7,219.56Z" style="opacity:0.2"></path><path d="M154.63,205.82A202.68,202.68,0,0,1,159.88,233c.23,3.38.83,6.47-.5,10.27a33.73,33.73,0,0,1-3.82,6.47c-2.68,3.79-5.62,7.37-8.59,10.88-3.36,3.93-7.06,8.06-10.55,11.89-.46.45-1,1.32-1.7,1.55L129,269.55a5.7,5.7,0,0,1,1.07-2l1.24-1.86c2.4-3.62,5-7.61,7.29-11.25,3.09-5,6.68-10.09,9.06-15.41,0-.05,0-.09,0-.06s0,0,0,.06a.76.76,0,0,0-.06.16s0,.14,0,.09c0-.27,0-.42-.06-.76-1.28-9.74-4.15-19.67-6.33-29.32l13.43-3.4Z" style="fill:#e9bfbb"></path><path d="M140.16,194.47s7.78,1.6,12.28,5.65c6,5.4,7.08,24.82,7.08,24.82l-14.63,4.52-3.47-9.91Z" style="fill:#1D4ED8"></path><path d="M123.54,157.78s-5.42,2.94-4.3,12.28S132.79,161.84,123.54,157.78Z" style="fill:#eec1bb"></path><path d="M123.54,157.78s-5.42,2.94-4.3,12.28S132.79,161.84,123.54,157.78Z" style="opacity:0.5"></path><path d="M138.44,170.69c-1.8,7.05-1,8.38-5.3,11.32-6.46,4.41-15.53,3.8-15.44-3.67.09-6.72,1.66-18.62,9.18-20.06A10,10,0,0,1,138.44,170.69Z" style="fill:#eec1bb"></path><path d="M129.68,169.78c-.14.6-.42.6-.82.5s-.74-.24-.6-.85.57-1,1-.92S129.82,169.17,129.68,169.78Z" style="fill:#263238"></path><path d="M122.16,168.82c-.14.61-.43.61-.82.51s-.75-.24-.61-.85.58-1,1-.92S122.3,168.22,122.16,168.82Z" style="fill:#263238"></path><path d="M123.36,168.77a16.91,16.91,0,0,1-2.91,3.62,2.75,2.75,0,0,0,2.17.81Z" style="fill:#d4827d"></path><path d="M131.33,167.26a.34.34,0,0,0,.17,0,.35.35,0,0,0,.12-.5,3.66,3.66,0,0,0-2.8-1.81.36.36,0,0,0-.37.35.37.37,0,0,0,.35.38h0a2.92,2.92,0,0,1,2.2,1.45A.38.38,0,0,0,131.33,167.26Z" style="fill:#263238"></path><path d="M119.76,165.45a.38.38,0,0,0,.34,0,2.86,2.86,0,0,1,2.57-.5.36.36,0,0,0,.47-.21.37.37,0,0,0-.22-.47,3.59,3.59,0,0,0-3.25.59.37.37,0,0,0-.08.51A.52.52,0,0,0,119.76,165.45Z" style="fill:#263238"></path><path d="M134.92,164.78a4.23,4.23,0,0,0-1.94-3.61c-2-1.1-7.81,1-11-1.89,0,0-2.83-4.95,3-6.61s15.75,2.15,18.34,7.05.75,8.26.75,8.26a4.93,4.93,0,0,0-.12-2.23,6.68,6.68,0,0,1-2.34,5.28Z" style="fill:#263238"></path><path d="M136.8,175.38c-3.47,1.56-2.37-1.78-2.1-2.1,1.16-1.42.49-3.62-.32-6.7a8.49,8.49,0,0,1,.22-3.49s4.12-.38,6.47.47a3.07,3.07,0,0,1,2.31,2.89C142.21,172.71,139.59,174.13,136.8,175.38Z" style="fill:#eec1bb"></path><path d="M136.8,175.38c-3.47,1.56-2.37-1.78-2.1-2.1,1.16-1.42.49-3.62-.32-6.7a8.49,8.49,0,0,1,.22-3.49s4.12-.38,6.47.47a3.07,3.07,0,0,1,2.31,2.89C142.21,172.71,139.59,174.13,136.8,175.38Z" style="opacity:0.5"></path><path d="M140.79,176.07a6.61,6.61,0,0,1-3.94,2.86c-2.06.46-2.77-1.6-1.92-3.66.77-1.84,2.76-4.31,4.7-3.86S142,174.27,140.79,176.07Z" style="fill:#eec1bb"></path><path d="M122.42,177.16a.21.21,0,0,1-.1-.39,9.83,9.83,0,0,1,4.62-.82.21.21,0,0,1,.21.21.21.21,0,0,1-.21.21,9.61,9.61,0,0,0-4.41.76A.23.23,0,0,1,122.42,177.16Z" style="fill:#263238"></path></g><g id="freepik--character-3--inject-2"><rect x="244.52" y="441.11" width="7.86" height="2.92" style="fill:#263238"></rect><rect x="308.36" y="441.11" width="7.86" height="2.92" style="fill:#263238"></rect><rect x="242.06" y="366.4" width="76.63" height="75.69" rx="1.38" style="fill:#1D4ED8"></rect><rect x="242.05" y="366.39" width="76.64" height="75.7" rx="1.39" style="fill:#fff;opacity:0.4"></rect><rect x="239.38" y="364.23" width="81.98" height="18.79" rx="4.83" style="fill:#1D4ED8"></rect><path d="M321.36,369.06v9.12a4.84,4.84,0,0,1-4.83,4.84H244.21a4.84,4.84,0,0,1-4.83-4.84v-9.12a4.83,4.83,0,0,1,4.83-4.83h72.32A4.83,4.83,0,0,1,321.36,369.06Z" style="fill:#fff;opacity:0.4"></path><path d="M321.36,369.06v4.87c-1.65-1.6-5.3-.76-7.93.89-4.08,2.56-17.78,2.3-22.4-.89s-7.55.89-21.18-.3c-11.86-1-12.89-9.4-21.4-9.4h68.08A4.83,4.83,0,0,1,321.36,369.06Z" style="isolation:isolate;opacity:0.2"></path><path d="M357.32,438.25A10,10,0,0,1,354,437.2h0l-.05,0a.16.16,0,0,1,0-.07h0a.09.09,0,0,0,0-.05h0a.15.15,0,0,1,0-.09c0-.09.72-1.93,1.8-2.37a1.24,1.24,0,0,1,1,0c.36.18.53.4.52.68s-.61.83-1.26,1.17a3.24,3.24,0,0,1,1.79.21.84.84,0,0,1,.41.55.74.74,0,0,1-.2.84A1.08,1.08,0,0,1,357.32,438.25Zm-2.58-1.18c1.17.51,2.62,1,3,.66,0,0,.13-.1.06-.42a.47.47,0,0,0-.23-.28A5.24,5.24,0,0,0,354.74,437.07Zm1.44-2.17a.85.85,0,0,0-.31.06,3.48,3.48,0,0,0-1.39,1.69c1.19-.43,2.33-1,2.36-1.39,0-.11-.18-.22-.28-.27A.88.88,0,0,0,356.18,434.9Z" style="fill:#1D4ED8"></path><path d="M345.16,436.2c0-.65,8,0,8,0s4.84,5,9.59,6.21,2,4-3.27,3.94l-13.15-.16C342.52,446.11,344.92,442.92,345.16,436.2Z" style="fill:#263238"></path><path d="M286.32,438.25A10,10,0,0,1,283,437.2h0a.1.1,0,0,1-.05,0,.18.18,0,0,1-.05-.07h0s0,0,0-.05h0a.28.28,0,0,1,0-.09c0-.09.72-1.93,1.81-2.37a1.24,1.24,0,0,1,1,0c.36.18.53.4.51.68s-.6.83-1.25,1.17a3.22,3.22,0,0,1,1.78.21.88.88,0,0,1,.42.55.77.77,0,0,1-.2.84A1.08,1.08,0,0,1,286.32,438.25Zm-2.58-1.18c1.16.51,2.62,1,3,.66,0,0,.14-.1.06-.42a.49.49,0,0,0-.22-.28A5.24,5.24,0,0,0,283.74,437.07Zm1.44-2.17a.91.91,0,0,0-.32.06,3.46,3.46,0,0,0-1.38,1.69c1.18-.43,2.33-1,2.35-1.39,0-.11-.17-.22-.28-.27A.84.84,0,0,0,285.18,434.9Z" style="fill:#1D4ED8"></path><path d="M274.15,436.2c0-.65,8,0,8,0s4.84,5,9.58,6.21,2.05,4-3.27,3.94l-13.15-.16C271.51,446.11,273.91,442.92,274.15,436.2Z" style="fill:#263238"></path><path d="M292.45,338.23l.52,5.55s32.48,4.93,37.68,10,23.83,82.85,23.83,82.85-5.41,2.31-9.66,1.11c0,0-25.46-49.25-25.17-65.4,0,0-22.73.85-38.25.85s-17.38-35-17.38-35Z" style="fill:#1D4ED8"></path><path d="M292.45,338.23l.52,5.55s32.48,4.93,37.68,10,23.83,82.85,23.83,82.85-5.41,2.31-9.66,1.11c0,0-25.46-49.25-25.17-65.4,0,0-22.73.85-38.25.85s-17.38-35-17.38-35Z" style="opacity:0.2"></path><path d="M318,372.42c-3.71.13-13.31.45-23.17.64l2-23.35s11.68,1.42,19,7C318.69,358.75,318.81,365.42,318,372.42Z" style="isolation:isolate;opacity:0.2"></path><path d="M264,338.23s-10,14.87-4.57,27.08S292.27,372,292.27,372c-4.12,6.36-8.79,12-18.57,64.15a13.82,13.82,0,0,0,9.2.77s30.59-62.9,31.37-74.13S282,344.37,282,344.37Z" style="fill:#1D4ED8"></path><path d="M264,338.23s-10,14.87-4.57,27.08S292.27,372,292.27,372c-4.12,6.36-8.79,12-18.57,64.15a13.82,13.82,0,0,0,9.2.77s30.59-62.9,31.37-74.13S282,344.37,282,344.37Z" style="opacity:0.2"></path><path d="M299,296.12c5.68,3.33,11.75,7.61,18.05,9.26.17,0,.18,0-.24.18a3.72,3.72,0,0,0-2.08,2.92c0,.65.06.69,0,.66-1.16-3.57-3.5-6.88-5.4-10.2,0,0-6.84-11.05-6.84-11.06a2.39,2.39,0,0,1,3.72-2.93,128.83,128.83,0,0,1,13,15.25c2.42,3.48,6.72,9.51,1.7,12.92-6.83,4.07-21.32-5.23-27.24-9-5.12-3.66-.09-11.26,5.28-8Z" style="fill:#e4897b"></path><path d="M307,300.06s-1.53,6.74-5.3,9.46a5.59,5.59,0,0,1-3,1.11c-2,.12-3.42-1.79-4.33-4.36-1.72-4.87-1.8-12.08-1.8-12.08C299.14,295,301.52,296.85,307,300.06Z" style="fill:#263238"></path><path d="M301.73,309.52a5.59,5.59,0,0,1-3,1.11c-2,.12-3.42-1.79-4.33-4.36,1.84-3.08,3.51-5.64,3.51-5.64S300.82,302.78,301.73,309.52Z" style="opacity:0.2"></path><path d="M300.6,308.23c.07,5.93-4.59,21.76-7,31.82l-31.41-.42c.58-3,2.49-12.08,2.17-18.9,0-.48-.05-1-.08-1.5-.06-1.34-.17-2.77-.29-4.3,0-.3,0-.61-.07-.93q-.23-2.65-.56-5.72-.3-2.77-.7-5.91c-.12-1-.25-2.05-.4-3.12a7.37,7.37,0,0,1,7.6-8.58c1.25.05,2.59.13,3.93.26a100.6,100.6,0,0,1,14.2,2c1.52.36,3.1.79,4.6,1.22C298,295.75,300.53,302.66,300.6,308.23Z" style="fill:#263238"></path><path d="M268.76,301.73s-.74,8.76-4.72,13.2c0-.3,0-.61-.07-.93q-.23-2.65-.56-5.72C266,304.84,268.76,301.73,268.76,301.73Z" style="opacity:0.2"></path><path d="M273.59,259.2c-5.27,9.7-5,22.13-3.2,24.73s28.27,1.18,28.27,1.18-2.57-2.81-2.84-18.52S273.59,259.2,273.59,259.2Z" style="fill:#263238"></path><path d="M295.11,274.63c2.61-4.06,5.53-15.21-4.37-19.15-12.37-4.92-18.36,2.84-19.81,10.73s2.75,14.1,11.08,13.88S293.31,277.45,295.11,274.63Z" style="fill:#263238"></path><path d="M279.16,275.67c.12,4.78-.39,13.36-4,15.64,0,0,1.57,1.86,12.06,8.16,3.52-3.11,1.87-4.77,1.87-4.77-4.8-2.43-4-6.18-2.58-9.51Z" style="fill:#e4897b"></path><path d="M282.14,279.55l4.33,5.63a14.46,14.46,0,0,0-.84,2.42,12.38,12.38,0,0,1-5.62-6.29A13.48,13.48,0,0,0,282.14,279.55Z" style="opacity:0.2"></path><path d="M306.48,286.81l0-8.14-7,1.12s-.81,5.68,3.31,8Z" style="fill:#e4897b"></path><polygon points="303.8 273.56 298.77 275.64 299.48 279.79 306.5 278.68 303.8 273.56" style="fill:#e4897b"></polygon><path d="M249.55,292.87l-6.5-4.88,5.12-4.93s5,2.77,4.4,7.47Z" style="fill:#e4897b"></path><polygon points="240.59 282.75 245.29 279.99 248.17 283.06 243.04 287.99 240.59 282.75" style="fill:#e4897b"></polygon><path d="M269.7,298.23a95.89,95.89,0,0,1-5.56,12.54c-2.22,3.84-4.44,8.34-8.71,10.67a5.33,5.33,0,0,1-5.68-.51c-4.09-3.31-3.15-12.26-3.09-17a122.14,122.14,0,0,1,1.45-13.38,2.38,2.38,0,0,1,4.73.23c.27,4.36.55,8.75.89,13,.42,3.63.46,7.7,1.79,11a3.18,3.18,0,0,0-2.59-1.36,3.71,3.71,0,0,0-1.45.29s0-.05.12-.16c4-5.36,6.44-12.47,9.14-18.69,2.42-5.8,10.94-2.61,9,3.35Z" style="fill:#e4897b"></path><path d="M290.5,270.87l5.44-5.88-.27-.3a4.22,4.22,0,0,1,.76,0,.66.66,0,0,1,.52.36l9.91,16.29a1,1,0,0,1,0,1.18l-5.58,6a.46.46,0,0,1-.32.15h-.79l.14-.51-9.82-16.14A1.07,1.07,0,0,1,290.5,270.87Z" style="fill:#1D4ED8"></path><path d="M300.54,288.55l5.58-6a1,1,0,0,0,0-1.18l-9.91-16.29c-.24-.39-.63-.47-.88-.2l-5.58,6a1.07,1.07,0,0,0,0,1.19l9.92,16.29C299.9,288.73,300.29,288.82,300.54,288.55Z" style="fill:#1D4ED8"></path><path d="M300.54,288.55l5.58-6a1,1,0,0,0,0-1.18l-9.91-16.29c-.24-.39-.63-.47-.88-.2l-5.58,6a1.07,1.07,0,0,0,0,1.19l9.92,16.29C299.9,288.73,300.29,288.82,300.54,288.55Z" style="fill:#fff;opacity:0.6000000000000001"></path><path d="M300.21,287.92l5.52-5.95a.51.51,0,0,0,0-.58l-9.61-15.82c-.12-.18-.31-.23-.43-.09l-5.51,5.95a.49.49,0,0,0,0,.58l9.61,15.81C299.9,288,300.09,288.05,300.21,287.92Z" style="fill:#263238"></path><g style="opacity:0.4"><path d="M291.93,272.86a.27.27,0,0,0,.2-.09l4.25-4.59a.27.27,0,0,0,0-.39.27.27,0,0,0-.38,0l-4.26,4.59a.28.28,0,0,0,0,.39A.29.29,0,0,0,291.93,272.86Z" style="fill:#fff"></path></g><path d="M296.1,277.75a2.23,2.23,0,0,0,1.54,1.15,1.52,1.52,0,0,0,1.35-.5,2.77,2.77,0,0,0,.65-1.65,3.79,3.79,0,0,0-.53-2.26c-.76-1.25-2.06-1.54-2.89-.64A3.44,3.44,0,0,0,296.1,277.75Z" style="fill:#fff;opacity:0.4"></path><path d="M297.58,278.81l.06.09a1.52,1.52,0,0,0,1.35-.5,2.77,2.77,0,0,0,.65-1.65l-.06-.1A1.25,1.25,0,0,0,298,276a1.37,1.37,0,0,0-.18-.92c-.27-.46-.75-.56-1.05-.24a1.26,1.26,0,0,0,0,1.42.78.78,0,0,0,.64.42A2.44,2.44,0,0,0,297.58,278.81Z" style="fill:#fff"></path><path d="M300.18,287.56l5.29-5.72a.33.33,0,0,0,0-.38l-1.42-2.33c-.07-.12-.2-.15-.28-.06l-5.29,5.71a.34.34,0,0,0,0,.39l1.42,2.32C300,287.62,300.09,287.65,300.18,287.56Z" style="fill:#fff;opacity:0.2"></path><g style="opacity:0.4"><path d="M294.26,272a.13.13,0,0,0,.1,0l.88-.95a.14.14,0,1,0-.2-.19l-.88,1a.14.14,0,0,0,0,.2Z" style="fill:#fff"></path></g><path d="M299.74,285.81c.19.31.51.39.72.16a.87.87,0,0,0,0-1c-.19-.31-.51-.38-.72-.16A.85.85,0,0,0,299.74,285.81Z" style="fill:#fff;opacity:0.4"></path><path d="M301,284.45c.19.31.51.38.72.16a.87.87,0,0,0,0-1c-.19-.31-.51-.38-.72-.16A.87.87,0,0,0,301,284.45Z" style="fill:#fff;opacity:0.4"></path><path d="M302.26,283.08c.19.32.51.39.72.17a.87.87,0,0,0,0-1c-.19-.32-.51-.39-.72-.16A.85.85,0,0,0,302.26,283.08Z" style="fill:#fff;opacity:0.4"></path><path d="M303.52,281.72c.19.32.52.39.72.16a.85.85,0,0,0,0-1c-.2-.32-.52-.39-.73-.16A.85.85,0,0,0,303.52,281.72Z" style="fill:#1D4ED8"></path><path d="M276,267.82c.56,7.56.63,10.78,4.5,14.61,5.82,5.77,15,3.43,16.7-4.15,1.54-6.81.36-18-7.08-20.95A10.34,10.34,0,0,0,276,267.82Z" style="fill:#e4897b"></path><path d="M281.73,260.2c2.32,2.44-1.72,11.12-5.35,12.86C268.86,271.29,274.8,252.92,281.73,260.2Z" style="fill:#263238"></path><path d="M290.36,255.9c2.89,1,5.95,6,6.46,7.89-4.1.67-15.15-3.17-15.15-3.17s-7.38,2-3.64-1.7S290.36,255.9,290.36,255.9Z" style="fill:#263238"></path><path d="M294.93,270.8c0,.62.34,1.11.74,1.11s.73-.51.72-1.13-.34-1.11-.74-1.1S294.92,270.18,294.93,270.8Z" style="fill:#263238"></path><path d="M295.47,269.71l1.47-.44S296.2,270.43,295.47,269.71Z" style="fill:#263238"></path><path d="M274,274.79a5.53,5.53,0,0,0,2.93,3c1.78.77,2.94-.76,2.66-2.58-.25-1.64-1.48-4-3.38-4A2.5,2.5,0,0,0,274,274.79Z" style="fill:#e4897b"></path><path d="M285.23,268.3a.36.36,0,0,0,.37-.2,4.27,4.27,0,0,1,2.88-1.86.36.36,0,0,0,.3-.42.35.35,0,0,0-.41-.3c-.1,0-2.52.42-3.42,2.26a.35.35,0,0,0,.17.48Z" style="fill:#263238"></path><path d="M297.05,266.35a.37.37,0,0,0,.34-.13.36.36,0,0,0-.06-.51,3.61,3.61,0,0,0-3.22-.73.37.37,0,0,0-.23.46.35.35,0,0,0,.45.23h0a2.85,2.85,0,0,1,2.55.6A.3.3,0,0,0,297.05,266.35Z" style="fill:#263238"></path><path d="M288,270.89c0,.61.34,1.11.74,1.1s.72-.5.72-1.12-.34-1.11-.75-1.11S288,270.27,288,270.89Z" style="fill:#263238"></path><path d="M288.51,269.8l1.47-.45S289.24,270.52,288.51,269.8Z" style="fill:#263238"></path><path d="M291.54,278.34a20.86,20.86,0,0,0-1.75,2.54l-.51-.2c-2.28-.92-3-2.1-3.19-3.13a3.37,3.37,0,0,1,.18-1.5,2.76,2.76,0,0,1,.39-.76,11.43,11.43,0,0,0,4.11,2.72C291.24,278.23,291.54,278.34,291.54,278.34Z" style="fill:#263238"></path><path d="M290.77,278l-.54.74c-2.15-.87-3.55-1.77-4-2.7a2.76,2.76,0,0,1,.39-.76A11.43,11.43,0,0,0,290.77,278Z" style="fill:#fff"></path><path d="M289.28,280.68c-2.28-.92-3-2.1-3.19-3.13a7.82,7.82,0,0,1,2.34,1.52A3,3,0,0,1,289.28,280.68Z" style="fill:#de5753"></path><path d="M289.38,274.39a3.19,3.19,0,1,1,2.8-3.17A3,3,0,0,1,289.38,274.39Zm0-5.85a2.71,2.71,0,1,0,2.32,2.68A2.52,2.52,0,0,0,289.38,268.54Z" style="fill:#263238"></path><path d="M296.21,274.39a3.19,3.19,0,1,1,2.79-3.17A3,3,0,0,1,296.21,274.39Zm0-5.85a2.72,2.72,0,1,0,2.31,2.68A2.52,2.52,0,0,0,296.21,268.54Z" style="fill:#263238"></path><path d="M292.87,270.73a16.52,16.52,0,0,0,2.24,3.9,2.64,2.64,0,0,1-2.19.44Z" style="fill:#de5753"></path><path d="M292.07,271.43l-.26-.41c.05,0,1.32-.81,2,.05l-.38.31C293,270.83,292.07,271.42,292.07,271.43Z" style="fill:#263238"></path><rect x="277.65" y="270.98" width="9.18" height="0.48" style="fill:#263238"></rect><path d="M268.87,290.7c-6.43.12-7.75,1.75-12.37,10.89l9.72,7.06s3.76-5.48,4.42-9.91A12.42,12.42,0,0,0,268.87,290.7Z" style="fill:#263238"></path></g><g id="freepik--character-2--inject-2"><path d="M218.59,431l-4.77,5.43L210,440.73l-5.34,6.08-1.42,1.62h0L202,449.89l-.59-.65c-.62-.7-1.26-1.44-1.93-2.23-.37-.44-.75-.9-1.13-1.38-4.44-5.43-9.65-12.6-14.68-19.91-2.07-3-4.12-6.06-6.07-9-5.24,10.29-36.39,22.57-40.32,33-.54.34-2.22-.38-3.91-1.25-2.06-1.09-4.13-2.44-4.13-2.44s31.2-43,45.51-52.43a11.24,11.24,0,0,1,3.63-1.73,3.67,3.67,0,0,1,.75-.08C188.66,391.74,212.89,424.31,218.59,431Z" style="fill:#b55b52"></path><path d="M136.47,456.53c-2.51.05-3.26-.34-6.38-.23s-4.24.2-8.72.22h-2.29c-2.6,0-3.55-3.39,0-3.86,3.66-.49,8.85-4.14,10.19-6.69l7.23.68h.13c.22.93.46,2,.68,3s.42,1.91.59,2.49C138.5,454.47,138.57,456.48,136.47,456.53Z" style="fill:#b55b52"></path><path d="M234.86,447.41s-12,10.78-21.75,9.23a21,21,0,0,1-12.64-7.13,14.9,14.9,0,0,1-1.55-2.1l.54-.4,3-2.22,6.63-4.88,4.73-3.49,7.18-5.3,8.74,10.27Z" style="fill:#263238"></path><path d="M208,439s-6.06,5.78-10.78,7l1.79,3.78s6.51-.19,11.49-8.58Z" style="fill:#1D4ED8"></path><path d="M208,439s-6.06,5.78-10.78,7l1.79,3.78s6.51-.19,11.49-8.58Z" style="fill:#fff;opacity:0.6000000000000001"></path><path d="M229.74,441.39l-6.53,12.23s-8.44,1.3-18-6.39l-.51-.42c-.74-.62-1.49-1.29-2.23-2l-.84-.84c-4.54-4.7-9.14-11.65-13-21.89a16.72,16.72,0,0,1-4.93,3.66c-2.07-3-4.12-6.06-6.07-9-5.24,10.29-36.39,22.57-40.32,33,.22,1,.42,1.91.59,2.49.65,2.31.72,4.32-1.38,4.37-2.51.05-3.26-.34-6.38-.23s-4.24.2-8.72.22a7.05,7.05,0,0,1,3.58-4.07,88.35,88.35,0,0,0,8.4-4c1.19-.65,2.28-1.26,3.1-1.76.43-.26.78-.49,1.05-.68,2.05-1.46,21.24-34.66,38.78-47.93a12.26,12.26,0,0,1-1.55-4.5,11.24,11.24,0,0,1,3.63-1.73,3.67,3.67,0,0,1,.75-.08c9.55,0,33.78,32.57,39.48,39.25l-4.77,5.43,7.18-5.3Z" style="isolation:isolate;opacity:0.2"></path><path d="M197,382c-4.07,6.64-7.15,14.73-13.79,19.54A4.85,4.85,0,0,1,177,401c-2-2.07-1.63-5.18-1.48-7.5a85.73,85.73,0,0,1,1.45-9.39c.81-4.06,1.8-8,3-12a2.43,2.43,0,0,1,4.76.81c-.15,7.69-1.25,15.65-.66,23.26,0,.11,0,.18,0,.05-.38-1.67-2.82-2.95-4.54-2.45a4.16,4.16,0,0,0-1.21.48l.07-.07a30.56,30.56,0,0,0,4.45-6.64c1.81-3.31,3.91-7.54,6-10.77,3.63-5.16,11.33-.29,8.24,5.2Z" style="fill:#b65b52"></path><path d="M192.92,381.19a21.61,21.61,0,0,0-1.57,7.72s-2-.58-6.95-.29a27.89,27.89,0,0,0,.5-5.05l-.86,1.6v3.47l-8.35,2.84c-.08.65-.15,1.31-.21,2s-.09,1.12-.11,1.72a15.21,15.21,0,0,0,0,2,9,9,0,0,0,.25,1.45,6.62,6.62,0,0,0,.51,1.28A5.38,5.38,0,0,0,177,401a3.43,3.43,0,0,0,.33.32c.14.11.26.21.42.32a5.79,5.79,0,0,0,.54.31,3.73,3.73,0,0,0,.61.26,4.84,4.84,0,0,0,2.53.14l.46-.13.22-.07.17-.08.34-.15.27-.14.27-.17.13-.08.26-.18c.34-.22.63-.45.93-.68a20,20,0,0,0,2.76-2.78,48.5,48.5,0,0,0,3.87-5.48c1.13-1.81,2.15-3.62,3.14-5.39.44-.79.87-1.58,1.31-2.35A10.72,10.72,0,0,0,192.92,381.19Z" style="isolation:isolate;opacity:0.2"></path><path d="M179.9,372.32l-.78-8.2,7.19.47s1.35,5.66-2.6,8.39Z" style="fill:#b55b52"></path><polygon points="181.37 358.71 186.64 360.34 186.31 364.59 179.12 364.12 181.37 358.71" style="fill:#b55b52"></polygon><path d="M194.15,355.89l-5-5.39.26-.28a4.93,4.93,0,0,0-.71,0,.6.6,0,0,0-.47.33l-9.09,14.94a1,1,0,0,0,0,1.09l5.12,5.52a.42.42,0,0,0,.29.14h.72l-.12-.47,9-14.8A1,1,0,0,0,194.15,355.89Z" style="fill:#1D4ED8"></path><path d="M184.94,372.1l-5.12-5.52a1,1,0,0,1,0-1.09l9.09-14.94c.21-.35.57-.43.8-.18l5.12,5.52a1,1,0,0,1,0,1.09l-9.09,14.94C185.53,372.27,185.17,372.35,184.94,372.1Z" style="fill:#1D4ED8"></path><path d="M184.94,372.1l-5.12-5.52a1,1,0,0,1,0-1.09l9.09-14.94c.21-.35.57-.43.8-.18l5.12,5.52a1,1,0,0,1,0,1.09l-9.09,14.94C185.53,372.27,185.17,372.35,184.94,372.1Z" style="fill:#fff;opacity:0.6000000000000001"></path><path d="M185.24,371.53l-5.06-5.47a.48.48,0,0,1,0-.53L189,351c.1-.17.27-.21.39-.09l5.06,5.46a.46.46,0,0,1,0,.53l-8.82,14.51C185.53,371.61,185.35,371.65,185.24,371.53Z" style="fill:#263238"></path><g style="opacity:0.4"><path d="M192.83,357.71a.23.23,0,0,1-.18-.08l-3.9-4.21a.25.25,0,0,1,0-.35.24.24,0,0,1,.35,0l3.91,4.21a.26.26,0,0,1,0,.36A.24.24,0,0,1,192.83,357.71Z" style="fill:#fff"></path></g><path d="M189,362.2a2.07,2.07,0,0,1-1.41,1.06,1.4,1.4,0,0,1-1.24-.47,2.46,2.46,0,0,1-.59-1.51,3.47,3.47,0,0,1,.48-2.07c.7-1.15,1.89-1.42,2.65-.59A3.18,3.18,0,0,1,189,362.2Z" style="fill:#fff;opacity:0.4"></path><path d="M187.65,363.17a.41.41,0,0,1-.05.09,1.4,1.4,0,0,1-1.24-.47,2.46,2.46,0,0,1-.59-1.51.26.26,0,0,1,0-.09,1.14,1.14,0,0,1,1.42-.63,1.35,1.35,0,0,1,.16-.85c.26-.41.69-.51,1-.21a1.16,1.16,0,0,1,0,1.29.72.72,0,0,1-.59.39A2.24,2.24,0,0,1,187.65,363.17Z" style="fill:#fff"></path><path d="M185.27,371.19,180.42,366a.3.3,0,0,1,0-.35l1.3-2.14a.15.15,0,0,1,.26,0l4.85,5.23a.32.32,0,0,1,0,.36l-1.29,2.13A.17.17,0,0,1,185.27,371.19Z" style="fill:#fff;opacity:0.2"></path><g style="opacity:0.4"><path d="M190.7,356.89a.1.1,0,0,1-.09,0l-.81-.87a.12.12,0,1,1,.18-.17l.81.87a.14.14,0,0,1,0,.18A.11.11,0,0,1,190.7,356.89Z" style="fill:#fff"></path></g><path d="M185.68,369.59c-.18.29-.48.35-.67.15a.81.81,0,0,1,0-.9c.18-.29.48-.35.67-.15A.81.81,0,0,1,185.68,369.59Z" style="fill:#1D4ED8"></path><path d="M184.52,368.34c-.18.29-.47.36-.66.15a.78.78,0,0,1,0-.9c.17-.29.47-.35.66-.15A.81.81,0,0,1,184.52,368.34Z" style="fill:#fff;opacity:0.4"></path><path d="M183.36,367.09c-.17.29-.47.36-.66.15a.79.79,0,0,1,0-.9c.17-.28.47-.35.66-.14A.78.78,0,0,1,183.36,367.09Z" style="fill:#fff;opacity:0.4"></path><path d="M182.2,365.84c-.17.29-.47.36-.66.15a.81.81,0,0,1,0-.9c.18-.28.47-.35.67-.14A.78.78,0,0,1,182.2,365.84Z" style="fill:#fff;opacity:0.4"></path><path d="M239.86,413.59l-31,8.46a49.23,49.23,0,0,0-1.57-6c-2.13-6.53-5.84-14.15-12.14-25.77-.85-1.58-6-14.05-6-14.05s2.76-3.51,9.58-5.28A61.93,61.93,0,0,1,213.91,369c1.58.06,3,.17,4.34.33.7.08,1.36.17,2,.27,7.53,1.26,10.25,4.19,11.58,8.55a101.48,101.48,0,0,1,3,10.33q.25,1.07.51,2.31c1.36,5.85,2.52,11.65,4.21,20.89C239.63,412.33,239.75,413,239.86,413.59Z" style="fill:#b55b52"></path><path d="M239.53,411.72c-7.5.78-23.91,3.12-32.27,4.34-2.13-6.53-5.84-14.15-12.14-25.77.9-.54,1-3.44,1-5.63,0-1.93.07-10.53,3.11-14,.1,0,1.49-.21,1.49-.21-1.84,2.94-2.44,7.6-.93,9.95,1.89,2.95,12,1.63,14.28-.39,3.38-3,3.85-8.27,4.16-10.66.7.08,1.36.17,2,.27-.69,3.4-2.85,18.86,14.57,18.88q.25,1.07.51,2.31C236.68,396.68,237.84,402.48,239.53,411.72Z" style="fill:#1D4ED8"></path><path d="M239.53,411.72c-7.5.78-23.91,3.12-32.27,4.34-2.13-6.53-5.84-14.15-12.14-25.77.9-.54,1-3.44,1-5.63,0-1.93.07-10.53,3.11-14,.1,0,1.49-.21,1.49-.21-1.84,2.94-2.44,7.6-.93,9.95,1.89,2.95,12,1.63,14.28-.39,3.38-3,3.85-8.27,4.16-10.66.7.08,1.36.17,2,.27-.69,3.4-2.85,18.86,14.57,18.88q.25,1.07.51,2.31C236.68,396.68,237.84,402.48,239.53,411.72Z" style="fill:#fff;opacity:0.7000000000000001"></path><path d="M207.84,356.16c.57,4.33,2.32,11.94,6.25,13.22a27.66,27.66,0,0,1-8.8,10.66,8.23,8.23,0,0,1-2.94-6.64s2.42-2.9-.37-7.1Z" style="fill:#b55b52"></path><path d="M209.54,363.46c-1.5,3.79-3.72,7.68-6.87,9.45.55-1,1.43-3.42-.69-6.61l5.86-10.14A36.58,36.58,0,0,0,209.54,363.46Z" style="isolation:isolate;opacity:0.2"></path><path d="M129.08,456.52c6.5,0,7.36-.1,11-.22,3.13-.11,3.87.28,6.39.22,2.1,0,2-2,1.37-4.36-.32-1.17-.82-3.62-1.27-5.5l-7.36-.69c-1.34,2.56-6.53,6.21-10.19,6.7C125.54,453.14,126.49,456.52,129.08,456.52Z" style="fill:#b55b52"></path><path d="M239.49,411.57c9.75,10.48,18.72,45.06-7.54,45.06a35.65,35.65,0,0,1-23.25-8.54l3.46-36.52,26.78-3Z" style="fill:#263238"></path><polygon points="235.69 413.48 240.7 413 239.12 409.5 234.86 409.95 235.69 413.48"></polygon><polygon points="233.31 410.12 212.16 412.38 212.73 415.7 234.27 413.62 233.31 410.12"></polygon><polygon points="211.62 412.03 216.72 411.53 217.33 415.7 212.16 416.3 211.62 412.03" style="fill:#fff"></polygon><path d="M203.31,403.07s11.58.49,14.69-.69c3.67-1.39,12.36-17,11.46-20.76-.56-2.38-7.68-4.34-7.68-4.34s-4.28,4.43-3.83,13-21.25,5.29-21.25,5.29Z" style="isolation:isolate;opacity:0.2"></path><path d="M219.36,419.12h5.27s-7.48-6.76-12.47-7.55-.54,5.84-.54,5.84Z" style="isolation:isolate;opacity:0.2"></path><path d="M187.58,416.7c8,12.19,15.33,23.05,22,30.35l9-28.31h0c-5.86-6.86-21.28-28.81-30.23-26.92C176.75,394.26,139.22,446,139.22,446s6.84,4.44,8,3.7C151.19,439.27,182.34,427,187.58,416.7Z" style="fill:#b55b52"></path><path d="M217.49,417.41S215.4,434,206.63,446l3.64,3.72s8.24-7.48,10.11-31.38Z" style="fill:#1D4ED8"></path><path d="M217.49,417.41S215.4,434,206.63,446l3.64,3.72s8.24-7.48,10.11-31.38Z" style="fill:#fff;opacity:0.6000000000000001"></path><path d="M202.7,400c-3.09-1.05-8.07-2.82-11.63-4.45a17.34,17.34,0,0,1-12.45,3c4-3.71,7.38-6.24,9.74-6.74a6,6,0,0,1,1.13-.11C193.3,391.7,198.05,395.31,202.7,400Z" style="isolation:isolate;opacity:0.2"></path><path d="M231.09,380.24c-2.54,6-5.21,11.53-9.33,16.77a13.8,13.8,0,0,1-2.79,2.65,6.52,6.52,0,0,1-2.08.79c-3.72.58-7.21-.42-10.62-1.15a130.8,130.8,0,0,1-17.52-5.71,2.43,2.43,0,0,1,1.31-4.65c7.19,1,17.22,3.15,24.34,3.09a1.63,1.63,0,0,0,.6-.1,1.75,1.75,0,0,0-.68.27,3.9,3.9,0,0,0-.46.34s.11-.15.15-.19c3.27-4.76,5.6-10.7,8.15-16,2.8-5.66,11.17-2,8.93,3.9Z" style="fill:#b65b52"></path><path d="M189.36,388.91l-8.19.79,1.83,7s5.8.25,7.73-4.14Z" style="fill:#b55b52"></path><polygon points="176.28 392.94 178.88 397.8 183 396.67 181.17 389.7 176.28 392.94" style="fill:#b55b52"></polygon><path d="M209.61,339.78c-.76-2.18-9.6-3.48-13.1-1.47s-1,3.23-3.7,3.83-5.62,2.11-5.73,4.61,4.07,4.65,2.07,6.3-4,5.48-.7,7.41,12.56,4.13,20.79,1.64,6.94-13.67,4.9-17a2.36,2.36,0,0,1,3.63,1.26c1.27,2.85-1.67,6.25.87,8.19s4.32,2.64,2.55,5.48,2.27,5.24,4.1,4.3c0,0-1.07.11-1.17-1.58s3.52-1.41,3.9-5.93-2.85-4.16-2.33-6.23,3.26-2.12,2.35-5.8c-.66-2.69-5.15-3.86-6.68-5.43s.22-3-2.5-5.8c-1.82-1.89-5.68-.67-7.38.76A5,5,0,0,0,209.61,339.78Z" style="fill:#263238"></path><path d="M210.06,350.9c.15,7,.36,9.88-2.78,13.89-4.72,6-13.14,5.13-15.33-1.52-2-6-1.88-16.35,4.54-20A8.9,8.9,0,0,1,210.06,350.9Z" style="fill:#b55b52"></path><path d="M201.76,353.81c0,.58-.23,1.09-.6,1.14s-.7-.38-.73-1,.23-1.1.59-1.15S201.72,353.23,201.76,353.81Z" style="fill:#263238"></path><path d="M194.57,354.55c0,.58-.23,1.1-.6,1.15s-.7-.39-.73-1,.23-1.1.59-1.14S194.53,354,194.57,354.55Z" style="fill:#263238"></path><path d="M194,353.6l-1.38-.23S193.38,354.37,194,353.6Z" style="fill:#263238"></path><path d="M196.84,355.54a17.52,17.52,0,0,1-1.77,4,2.35,2.35,0,0,0,2,.12Z" style="fill:#a02724"></path><path d="M200,348.66a.33.33,0,0,1,.24.1,2.48,2.48,0,0,0,2.23.8.32.32,0,0,1,.38.26.37.37,0,0,1-.29.41,3.13,3.13,0,0,1-2.83-1,.35.35,0,0,1,0-.48A.38.38,0,0,1,200,348.66Z" style="fill:#263238"></path><path d="M193.44,348.68a.33.33,0,0,1,.24,0,.34.34,0,0,1,.11.47,3.59,3.59,0,0,1-2.56,1.86.31.31,0,0,1-.34-.31.37.37,0,0,1,.32-.37,2.9,2.9,0,0,0,2-1.5A.3.3,0,0,1,193.44,348.68Z" style="fill:#263238"></path><path d="M201.19,352.85l-1.38-.22S200.58,353.63,201.19,352.85Z" style="fill:#263238"></path><path d="M207.62,355.55s-4.4-3.92-3.65-11.51c0,0-8.2-1.75-12.41,5,0,0,2.93-10.32,14.78-8.64s6.26,14,5.14,15.22S207.62,355.55,207.62,355.55Z" style="fill:#263238"></path><path d="M212.78,356.27a5.56,5.56,0,0,1-3.05,3c-1.77.66-2.75-1.05-2.33-2.94.37-1.71,1.74-4.11,3.56-3.95S213.52,354.55,212.78,356.27Z" style="fill:#b55b52"></path><path d="M202.77,361.25c0,.73-.87,1.92-3.1,3a7,7,0,0,0-.85-.87,5.56,5.56,0,0,0-1.68-1l.46-.25a17.09,17.09,0,0,1,4.15-1.63.94.94,0,0,1,.83.23A.69.69,0,0,1,202.77,361.25Z" style="fill:#263238"></path><path d="M202.77,361.25c0,.73-.87,1.92-3.1,3a7,7,0,0,0-.85-.87A6.63,6.63,0,0,1,202.77,361.25Z" style="fill:#de5753"></path><path d="M202.58,360.73c-1.21.52-4.83,1.57-4.83,1.57l-.15-.17a17.09,17.09,0,0,1,4.15-1.63A.94.94,0,0,1,202.58,360.73Z" style="fill:#fff"></path></g></svg>
