<svg id="Layer_1" data-name="Layer 1" xmlns="http://www.w3.org/2000/svg" viewBox="0 0 1404.41 1088.96"><defs><style>.cls-1{fill:#fff;}.cls-2{fill:none;stroke:#fff;stroke-miterlimit:10;stroke-width:20px;}</style></defs><path class="cls-1" d="M1231.3,630.0273H1088.57L1056.0869,694.01h-77.27l175.7051-345.0127H1174.7L1337.6094,694.01h-76.2871Zm-32.4834-68.9043-35.9277-76.7783-38.8819,76.7783Z"/><path class="cls-1" d="M296.7705,694.01l-64.4746-138.3H197.8438V693.5176H128.94V348.5049H258.873c57.0918,0,103.3565,46.7568,103.3565,103.8486a102.82,102.82,0,0,1-60.5371,94.0049L370.1045,694.01ZM197.8438,417.4092v69.3965H258.873a34.2407,34.2407,0,0,0,34.4522-34.4522c0-19.1943-15.2578-34.9443-34.4522-34.9443Z"/><polygon class="cls-2" points="1394.85 811.3 1394.85 278.06 933.05 11.44 471.25 278.06 471.25 811.3 933.05 1077.92 1394.85 811.3"/><polygon class="cls-2" points="933.16 810.9 933.16 277.66 471.36 11.04 9.56 277.66 9.56 810.9 471.36 1077.52 933.16 810.9"/><polygon class="cls-2" points="1004.6 544.28 204.74 82.48 204.74 1006.08 1004.6 544.28"/><!-- if you're reading this you shouldn't be here --></svg>