<svg xmlns="http://www.w3.org/2000/svg" viewBox="0 0 512 512"><defs><style>.cls-1{fill:#00e6ac;}.cls-2{fill:#fff;}</style></defs><g id="Layer_2" data-name="Layer 2"><g id="icon"><rect class="cls-1" width="512" height="512"/><path class="cls-2" d="M80,262.21c1.54-5.75,3.34-11.36,7.32-16a33.79,33.79,0,0,1,17.54-10.77c16.12-4.36,32.21-8.82,48.34-13.13a10.4,10.4,0,0,0,6-4.1c9.5-12.62,19.19-25.1,28.7-37.72q12.81-17,34-17,51.9,0,103.78,0,23.34,0,35.7,20,11.13,17.94,22.5,35.74a10.71,10.71,0,0,0,4.19,3.71c7.74,3.71,15.56,7.23,23.39,10.74,13.78,6.18,20.73,16.72,20.53,31.88-.11,8.24.4,16.55-.47,24.71-1.79,16.9-14.59,28.34-31.56,28.15-5.67-.06-8.23,1.35-10.57,6.81a38.93,38.93,0,0,1-37.6,23.3c-17-.93-30.88-11.26-36.35-27.33-.68-2-1.47-2.65-3.57-2.65q-57.9.11-115.81,0c-2.14,0-2.89.76-3.55,2.68a39.92,39.92,0,0,1-37.75,27.32c-17.3,0-32.29-10.71-38-27.4-.6-1.75-1.18-2.66-3.25-2.59-17.56.58-30.87-11.45-33.1-27.54a1.93,1.93,0,0,0-.33-.59Zm313.14,41.92c2.15,0,4.39,0,6.64,0,10.51-.14,17.62-7.27,17.69-17.79,0-7.22-.05-14.43,0-21.65.08-8.37-3.79-14.12-11.33-17.55-8.85-4-17.77-7.91-26.48-12.21a17,17,0,0,1-6.52-5.67c-7.91-12.19-15.72-24.45-23.15-36.94-6-10.06-14.44-14.59-26.09-14.52q-50,.3-100,0c-10.94-.05-19.32,4-25.82,12.85-9.63,13.1-19.72,25.86-29.48,38.86a14.62,14.62,0,0,1-8.58,5.76c-6.22,1.52-12.37,3.29-18.55,5-11.47,3.14-23,6.21-34.38,9.5-7.49,2.15-12.38,7.88-12.61,15-.26,7.89-.37,15.82,0,23.7a16.58,16.58,0,0,0,20.18,15.23c3.68-22.64,21.08-34.34,38.49-35.13a38.36,38.36,0,0,1,24.24,7.18c9.81,6.88,15.22,16.48,17,28.22H313.38c3.91-24.23,23.17-35.8,40.87-35.41C372.82,268.92,390,282.23,393.14,304.13ZM154.67,333.88c14.08-.09,25.69-11.74,25.5-25.59a25.6,25.6,0,1,0-25.5,25.59Zm198.72,0c14.09-.12,25.7-11.79,25.48-25.62a25.8,25.8,0,0,0-25.74-25.42c-14,.09-25.65,11.85-25.48,25.68A25.69,25.69,0,0,0,353.39,333.88Z"/><path class="cls-2" d="M251,201.41c0-1.87,0-3.64,0-5.41a5,5,0,1,1,10,.05c0,1.77,0,3.53,0,5.12a59.2,59.2,0,0,1,6.36,2.87,22,22,0,0,1,11.13,18.58c.18,3.31-1.86,5.66-4.8,5.76s-5.05-2.09-5.19-5.41A12.51,12.51,0,1,0,256,235.87a22.09,22.09,0,0,1,17.95,8.9,22.43,22.43,0,0,1-11.41,35.11l-1.47.44c0,1.75,0,3.51,0,5.27a5,5,0,1,1-10-.06c0-1.71,0-3.43,0-5.18-1.1-.37-2.13-.69-3.15-1.06a22.58,22.58,0,0,1-14.36-20.17c-.08-3.33,1.87-5.65,4.82-5.75s5.05,2.09,5.19,5.41a12.51,12.51,0,1,0,12.56-12.9,22.13,22.13,0,0,1-17.67-8.54A22.38,22.38,0,0,1,250,201.77C250.3,201.68,250.58,201.56,251,201.41Z"/></g></g></svg>